<svg xmlns="http://www.w3.org/2000/svg" width="1024" height="1024" viewBox="0 0 1024 1024"><defs>
 <linearGradient id="lite" x1="0" y1="0" x2="0.4" y2="1">
  <stop offset="0" stop-color="#93C0FB"/><stop offset="1" stop-color="#5E98F3"/></linearGradient>
 <linearGradient id="dark" x1="0" y1="0" x2="0.4" y2="1">
  <stop offset="0" stop-color="#4C8BEF"/><stop offset="1" stop-color="#2767D8"/></linearGradient>
 <linearGradient id="sheen" x1="0" y1="0" x2="0" y2="1">
  <stop offset="0" stop-color="#FFFFFF" stop-opacity="0.22"/>
  <stop offset="0.4" stop-color="#FFFFFF" stop-opacity="0"/>
  <stop offset="1" stop-color="#0A2A66" stop-opacity="0.10"/></linearGradient>
 <linearGradient id="white" x1="0" y1="0" x2="0" y2="1">
  <stop offset="0" stop-color="#FFFFFF"/><stop offset="1" stop-color="#EEF1F6"/></linearGradient>
 <clipPath id="oclip"><path d="M285,100 h454 a185,185 0 0 1 185,185 v454 a185,185 0 0 1 -185,185 h-454 a185,185 0 0 1 -185,-185 v-454 a185,185 0 0 1 185,-185 z"/></clipPath>
 <clipPath id="mclip"><path d="M285,100 h454 a185,185 0 0 1 185,185 v454 a185,185 0 0 1 -185,185 h-454 a185,185 0 0 1 -185,-185 v-454 a185,185 0 0 1 185,-185 z"/></clipPath>
 <filter id="fold" x="-30%" y="-30%" width="160%" height="160%"><feDropShadow dx="11" dy="11" stdDeviation="15" flood-color="#102E68" flood-opacity="0.42"/></filter>
 <filter id="seamsh" x="-30%" y="-30%" width="160%" height="160%"><feDropShadow dx="3" dy="4" stdDeviation="5" flood-color="#0E2A60" flood-opacity="0.30"/></filter>
 <filter id="marksh" x="-40%" y="-40%" width="180%" height="180%"><feDropShadow dx="0" dy="16" stdDeviation="20" flood-color="#243A66" flood-opacity="0.30"/></filter>
 <filter id="outer" x="-30%" y="-30%" width="160%" height="160%"><feDropShadow dx="0" dy="18" stdDeviation="26" flood-color="#9AA6BD" flood-opacity="0.45"/></filter>
</defs><rect width="1024" height="1024" fill="#FFFFFF"/><g filter="url(#outer)"><g clip-path="url(#oclip)"><path d="M285,100 h454 a185,185 0 0 1 185,185 v454 a185,185 0 0 1 -185,185 h-454 a185,185 0 0 1 -185,-185 v-454 a185,185 0 0 1 185,-185 z" fill="url(#white)"/><path d="M285,100 h454 a185,185 0 0 1 185,185 v454 a185,185 0 0 1 -185,185 h-454 a185,185 0 0 1 -185,-185 v-454 a185,185 0 0 1 185,-185 z" fill="none" stroke="#D7DEE8" stroke-width="2" opacity="0.7"/></g></g><g filter="url(#marksh)"><g transform="translate(163.84,163.84) scale(0.68000)"><g clip-path="url(#mclip)"><path d="M285,100 h454 a185,185 0 0 1 185,185 v454 a185,185 0 0 1 -185,185 h-454 a185,185 0 0 1 -185,-185 v-454 a185,185 0 0 1 185,-185 z" fill="url(#lite)"/><polygon points="1044.00,-20.00 610.99,413.01 694.43,496.44 496.44,694.43 63.44,1127.44 1124.00,1124.00 1124.00,-100.00" fill="url(#dark)"/><polygon points="1044.00,-20.00 610.99,413.01 694.43,496.44 496.44,694.43 63.44,1127.44 -100.00,1124.00 -100.00,-100.00" fill="url(#lite)" filter="url(#fold)"/><polyline points="1044.00,-20.00 610.99,413.01 694.43,496.44 496.44,694.43 63.44,1127.44" fill="none" stroke="#FFFFFF" stroke-width="42" stroke-linejoin="round" stroke-linecap="round" filter="url(#seamsh)"/><polyline points="1044.00,-20.00 610.99,413.01 694.43,496.44 496.44,694.43 63.44,1127.44" fill="none" stroke="#FFFFFF" stroke-width="42" stroke-linejoin="round" stroke-linecap="round"/><path d="M285,100 h454 a185,185 0 0 1 185,185 v454 a185,185 0 0 1 -185,185 h-454 a185,185 0 0 1 -185,-185 v-454 a185,185 0 0 1 185,-185 z" fill="url(#sheen)"/></g></g></g></svg>