<svg xmlns="http://www.w3.org/2000/svg" width="1024" height="1024" viewBox="0 0 1024 1024"><defs><mask id="cut"><path d="M285,100 h454 a185,185 0 0 1 185,185 v454 a185,185 0 0 1 -185,185 h-454 a185,185 0 0 1 -185,-185 v-454 a185,185 0 0 1 185,-185 z" fill="white"/><polyline points="1044.00,-20.00 610.99,413.01 694.43,496.44 496.44,694.43 63.44,1127.44" fill="none" stroke="black" stroke-width="42" stroke-linejoin="round" stroke-linecap="round"/></mask></defs><path d="M285,100 h454 a185,185 0 0 1 185,185 v454 a185,185 0 0 1 -185,185 h-454 a185,185 0 0 1 -185,-185 v-454 a185,185 0 0 1 185,-185 z" fill="#FFFFFF" mask="url(#cut)"/></svg>